<?xml version="1.0" encoding="UTF-8" standalone="no"?>
<!DOCTYPE svg PUBLIC "-//W3C//DTD SVG 1.1//EN"
 "http://www.w3.org/Graphics/SVG/1.1/DTD/svg11.dtd">
<!-- Generated by graphviz version 9.0.0 (0)
 -->
<!-- Title: Tree Pages: 1 -->
<svg width="638pt" height="441pt"
 viewBox="0.00 0.00 637.62 440.50" xmlns="http://www.w3.org/2000/svg" xmlns:xlink="http://www.w3.org/1999/xlink">
<g id="graph0" class="graph" transform="scale(1 1) rotate(0) translate(4 436.5)">
<title>Tree</title>
<polygon fill="white" stroke="none" points="-4,4 -4,-436.5 633.62,-436.5 633.62,4 -4,4"/>
<!-- 0 -->
<g id="node1" class="node">
<title>0</title>
<polygon fill="none" stroke="black" points="438.62,-432.5 234.38,-432.5 234.38,-346.5 438.62,-346.5 438.62,-432.5"/>
<text text-anchor="middle" x="336.5" y="-415.2" font-family="Helvetica,sans-Serif" font-size="14.00">Packet Length Mean &lt;= 0.75</text>
<text text-anchor="middle" x="336.5" y="-395.7" font-family="Helvetica,sans-Serif" font-size="14.00">gini = 0.423</text>
<text text-anchor="middle" x="336.5" y="-376.2" font-family="Helvetica,sans-Serif" font-size="14.00">samples = 5086</text>
<text text-anchor="middle" x="336.5" y="-356.7" font-family="Helvetica,sans-Serif" font-size="14.00">value = [3543.0, 1543.0]</text>
</g>
<!-- 1 -->
<g id="node2" class="node">
<title>1</title>
<polygon fill="none" stroke="black" points="323.5,-310.5 121.5,-310.5 121.5,-224.5 323.5,-224.5 323.5,-310.5"/>
<text text-anchor="middle" x="222.5" y="-293.2" font-family="Helvetica,sans-Serif" font-size="14.00">Fwd IAT Std &lt;= 3524936.875</text>
<text text-anchor="middle" x="222.5" y="-273.7" font-family="Helvetica,sans-Serif" font-size="14.00">gini = 0.309</text>
<text text-anchor="middle" x="222.5" y="-254.2" font-family="Helvetica,sans-Serif" font-size="14.00">samples = 1752</text>
<text text-anchor="middle" x="222.5" y="-234.7" font-family="Helvetica,sans-Serif" font-size="14.00">value = [334, 1418]</text>
</g>
<!-- 0&#45;&gt;1 -->
<g id="edge1" class="edge">
<title>0&#45;&gt;1</title>
<path fill="none" stroke="black" d="M296.31,-346.19C287.96,-337.41 279.09,-328.07 270.5,-319.03"/>
<polygon fill="black" stroke="black" points="273.18,-316.77 263.76,-311.93 268.11,-321.59 273.18,-316.77"/>
<text text-anchor="middle" x="262.07" y="-332.27" font-family="Helvetica,sans-Serif" font-size="14.00">True</text>
</g>
<!-- 2 -->
<g id="node7" class="node">
<title>2</title>
<polygon fill="none" stroke="black" points="559,-310.5 342,-310.5 342,-224.5 559,-224.5 559,-310.5"/>
<text text-anchor="middle" x="450.5" y="-293.2" font-family="Helvetica,sans-Serif" font-size="14.00">Subflow Fwd Bytes &lt;= 37130.0</text>
<text text-anchor="middle" x="450.5" y="-273.7" font-family="Helvetica,sans-Serif" font-size="14.00">gini = 0.072</text>
<text text-anchor="middle" x="450.5" y="-254.2" font-family="Helvetica,sans-Serif" font-size="14.00">samples = 3334</text>
<text text-anchor="middle" x="450.5" y="-234.7" font-family="Helvetica,sans-Serif" font-size="14.00">value = [3209.0, 125.0]</text>
</g>
<!-- 0&#45;&gt;2 -->
<g id="edge6" class="edge">
<title>0&#45;&gt;2</title>
<path fill="none" stroke="black" d="M376.69,-346.19C385.04,-337.41 393.91,-328.07 402.5,-319.03"/>
<polygon fill="black" stroke="black" points="404.89,-321.59 409.24,-311.93 399.82,-316.77 404.89,-321.59"/>
<text text-anchor="middle" x="410.93" y="-332.27" font-family="Helvetica,sans-Serif" font-size="14.00">False</text>
</g>
<!-- 3 -->
<g id="node3" class="node">
<title>3</title>
<polygon fill="none" stroke="black" points="133,-178.75 0,-178.75 0,-112.25 133,-112.25 133,-178.75"/>
<text text-anchor="middle" x="66.5" y="-161.45" font-family="Helvetica,sans-Serif" font-size="14.00">gini = 0.413</text>
<text text-anchor="middle" x="66.5" y="-141.95" font-family="Helvetica,sans-Serif" font-size="14.00">samples = 450</text>
<text text-anchor="middle" x="66.5" y="-122.45" font-family="Helvetica,sans-Serif" font-size="14.00">value = [319, 131]</text>
</g>
<!-- 1&#45;&gt;3 -->
<g id="edge2" class="edge">
<title>1&#45;&gt;3</title>
<path fill="none" stroke="black" d="M167.5,-224.19C151.22,-211.67 133.47,-198.01 117.45,-185.69"/>
<polygon fill="black" stroke="black" points="120.01,-183.25 109.95,-179.92 115.74,-188.8 120.01,-183.25"/>
</g>
<!-- 4 -->
<g id="node4" class="node">
<title>4</title>
<polygon fill="none" stroke="black" points="324.25,-188.5 150.75,-188.5 150.75,-102.5 324.25,-102.5 324.25,-188.5"/>
<text text-anchor="middle" x="237.5" y="-171.2" font-family="Helvetica,sans-Serif" font-size="14.00">Fwd IAT Min &lt;= 11241.0</text>
<text text-anchor="middle" x="237.5" y="-151.7" font-family="Helvetica,sans-Serif" font-size="14.00">gini = 0.023</text>
<text text-anchor="middle" x="237.5" y="-132.2" font-family="Helvetica,sans-Serif" font-size="14.00">samples = 1302</text>
<text text-anchor="middle" x="237.5" y="-112.7" font-family="Helvetica,sans-Serif" font-size="14.00">value = [15, 1287]</text>
</g>
<!-- 1&#45;&gt;4 -->
<g id="edge3" class="edge">
<title>1&#45;&gt;4</title>
<path fill="none" stroke="black" d="M227.79,-224.19C228.76,-216.4 229.79,-208.16 230.8,-200.08"/>
<polygon fill="black" stroke="black" points="234.25,-200.69 232.02,-190.33 227.31,-199.82 234.25,-200.69"/>
</g>
<!-- 7 -->
<g id="node5" class="node">
<title>7</title>
<polygon fill="none" stroke="black" points="232.88,-66.5 108.12,-66.5 108.12,0 232.88,0 232.88,-66.5"/>
<text text-anchor="middle" x="170.5" y="-49.2" font-family="Helvetica,sans-Serif" font-size="14.00">gini = 0.0</text>
<text text-anchor="middle" x="170.5" y="-29.7" font-family="Helvetica,sans-Serif" font-size="14.00">samples = 1287</text>
<text text-anchor="middle" x="170.5" y="-10.2" font-family="Helvetica,sans-Serif" font-size="14.00">value = [0, 1287]</text>
</g>
<!-- 4&#45;&gt;7 -->
<g id="edge4" class="edge">
<title>4&#45;&gt;7</title>
<path fill="none" stroke="black" d="M211.79,-102.19C206.64,-93.72 201.24,-84.83 196.1,-76.37"/>
<polygon fill="black" stroke="black" points="199.18,-74.71 191,-67.98 193.2,-78.34 199.18,-74.71"/>
</g>
<!-- 8 -->
<g id="node6" class="node">
<title>8</title>
<polygon fill="none" stroke="black" points="359.62,-66.5 251.38,-66.5 251.38,0 359.62,0 359.62,-66.5"/>
<text text-anchor="middle" x="305.5" y="-49.2" font-family="Helvetica,sans-Serif" font-size="14.00">gini = 0.0</text>
<text text-anchor="middle" x="305.5" y="-29.7" font-family="Helvetica,sans-Serif" font-size="14.00">samples = 15</text>
<text text-anchor="middle" x="305.5" y="-10.2" font-family="Helvetica,sans-Serif" font-size="14.00">value = [15, 0]</text>
</g>
<!-- 4&#45;&gt;8 -->
<g id="edge5" class="edge">
<title>4&#45;&gt;8</title>
<path fill="none" stroke="black" d="M263.6,-102.19C268.82,-93.72 274.3,-84.83 279.52,-76.37"/>
<polygon fill="black" stroke="black" points="282.43,-78.32 284.7,-67.97 276.47,-74.65 282.43,-78.32"/>
</g>
<!-- 5 -->
<g id="node8" class="node">
<title>5</title>
<polygon fill="none" stroke="black" points="503,-178.75 370,-178.75 370,-112.25 503,-112.25 503,-178.75"/>
<text text-anchor="middle" x="436.5" y="-161.45" font-family="Helvetica,sans-Serif" font-size="14.00">gini = 0.039</text>
<text text-anchor="middle" x="436.5" y="-141.95" font-family="Helvetica,sans-Serif" font-size="14.00">samples = 3270</text>
<text text-anchor="middle" x="436.5" y="-122.45" font-family="Helvetica,sans-Serif" font-size="14.00">value = [3205, 65]</text>
</g>
<!-- 2&#45;&gt;5 -->
<g id="edge7" class="edge">
<title>2&#45;&gt;5</title>
<path fill="none" stroke="black" d="M445.56,-224.19C444.28,-213.17 442.89,-201.28 441.6,-190.19"/>
<polygon fill="black" stroke="black" points="445.1,-190.03 440.47,-180.5 438.15,-190.84 445.1,-190.03"/>
</g>
<!-- 6 -->
<g id="node9" class="node">
<title>6</title>
<polygon fill="none" stroke="black" points="629.62,-178.75 521.38,-178.75 521.38,-112.25 629.62,-112.25 629.62,-178.75"/>
<text text-anchor="middle" x="575.5" y="-161.45" font-family="Helvetica,sans-Serif" font-size="14.00">gini = 0.117</text>
<text text-anchor="middle" x="575.5" y="-141.95" font-family="Helvetica,sans-Serif" font-size="14.00">samples = 64</text>
<text text-anchor="middle" x="575.5" y="-122.45" font-family="Helvetica,sans-Serif" font-size="14.00">value = [4, 60]</text>
</g>
<!-- 2&#45;&gt;6 -->
<g id="edge8" class="edge">
<title>2&#45;&gt;6</title>
<path fill="none" stroke="black" d="M494.57,-224.19C507.26,-212.01 521.05,-198.77 533.6,-186.72"/>
<polygon fill="black" stroke="black" points="535.76,-189.5 540.55,-180.05 530.92,-184.45 535.76,-189.5"/>
</g>
</g>
</svg>